<?xml version="1.0" encoding="UTF-8"?>
<svg width="22px" height="19px" viewBox="0 0 22 19" version="1.1" xmlns="http://www.w3.org/2000/svg" xmlns:xlink="http://www.w3.org/1999/xlink">
    <title>Icon/Alert Triangle</title>
    <g id="Desktop-Design-V01" stroke="none" stroke-width="1" fill="none" fill-rule="evenodd">
        <g id="Desktop---Homepage-V02" transform="translate(-430.000000, -562.000000)">
            <g id="Messages" transform="translate(16.000000, 500.000000)">
                <g id="Warning" transform="translate(0.000000, 44.000000)">
                    <g id="Icon/Alert-Triangle/Fill" transform="translate(413.000000, 16.000000)">
                        <polygon id="24pt-Bounding-Box" opacity="0" fill-rule="nonzero" transform="translate(12.000000, 12.000000) rotate(90.000000) translate(-12.000000, -12.000000) " points="0 0 24 0 24 24 0 24"></polygon>
                        <path d="M22.56,16.3 L14.89,3.58 L14.8900002,3.58000035 C13.8697202,1.98390035 11.7487302,1.51710035 10.1526202,2.53738035 C9.73360422,2.80522835 9.37784422,3.16098835 9.11000022,3.58000035 L1.44000022,16.3000004 L1.44000033,16.3000002 C0.888546329,17.2192472 0.869485329,18.3628902 1.39000013,19.3000002 L1.39000013,19.3000002 C1.99197413,20.3551402 3.11523013,21.0046402 4.33000013,21.0000002 L19.6700001,21.0000002 L19.67,21.0000002 C20.8765,21.0128747 21.99783,20.3797442 22.61,19.3400002 L22.6100001,19.3400001 C23.1460861,18.3926381 23.1269511,17.2292201 22.56,16.3000001 L22.56,16.3 Z M12,17 L12,17 C11.447715,17 11,16.552285 11,16 C11,15.447715 11.447715,15 12,15 C12.552285,15 13,15.447715 13,16 L13,16 C13,16.552285 12.552285,17 12,17 L12,17 Z M13,13.0000002 L13,13.0000002 C13,13.552285 12.552285,14.0000002 12,14.0000002 C11.447715,14.0000002 11,13.552285 11,13.0000002 L11,9.00000015 L11,9.00000015 C11,8.44771515 11.447715,8.00000015 12,8.00000015 C12.552285,8.00000015 13,8.44771515 13,9.00000015 C13,9.00000015 13,9.00000015 13,9.00000015 L13,13.0000002 Z" id="Fill" fill="#FFBB38" fill-rule="evenodd"></path>
                    </g>
                </g>
            </g>
        </g>
    </g>
</svg>