<?xml version="1.0" encoding="UTF-8"?>
<svg width="20px" height="18px" viewBox="0 0 20 18" version="1.1" xmlns="http://www.w3.org/2000/svg" xmlns:xlink="http://www.w3.org/1999/xlink">
    <title>Icon/Alert Triangle/Fill</title>
    <g id="Desktop-Design-V01" stroke="none" stroke-width="1" fill="none" fill-rule="evenodd">
        <g id="Desktop---Homepage-V02" transform="translate(-431.000000, -635.000000)">
            <g id="Messages" transform="translate(16.000000, 500.000000)">
                <g id="Information" transform="translate(0.000000, 116.000000)">
                    <g id="Icon/Car/Fill" transform="translate(413.000000, 16.000000)">
                        <polygon id="24pt-Bounding-Box" opacity="0" fill-rule="nonzero" points="0 0 24 0 24 24 0 24"></polygon>
                        <path d="M17,7.52 L17,4.99999851 C17.050988,3.94842851 16.2414281,3.05388851 15.1900001,2.99999851 L3.79000007,2.99999851 C2.74653009,3.06442501 1.94875009,3.95579551 2.00000009,4.99999851 L2.00000009,14.9999985 C1.98101743,15.8122341 2.45527803,16.5552411 3.20000003,16.8800011 C2.5730939,18.4136714 3.3081749,20.1651714 4.8418499,20.7920814 C6.3755199,21.4189874 8.1270199,20.6839064 8.7539299,19.1502314 C9.0345089,18.4638164 9.0509239,17.6978114 8.800006,16.9999985 L15.160006,16.9999985 C14.5947291,18.5574411 15.3990391,20.2782511 16.9564861,20.8435211 C18.5139261,21.4087981 20.2347361,20.6044881 20.8000061,19.0470411 C21.0400061,18.3857961 21.0400061,17.6612411 20.8000064,16.9999985 L21.0000064,16.9999985 C21.5522913,16.9999985 22.0000063,16.5522761 22.0000063,15.9999985 L22.0000063,11.9999985 C21.9938043,11.6922913 21.8462633,11.4045863 21.6000063,11.2199913 L17,7.52 Z M20,12.48 L20,15 L17,15 L17,10.08 L20,12.48 Z M6,19 C5.447715,19 5,18.552285 5,18 C5,17.447715 5.447715,17 6,17 C6.55228496,17 7,17.447715 7,18 C7,18.552285 6.552285,19 6,19 Z M18,19 C17.447715,19 17,18.552285 17,18 C17,17.447715 17.447715,17 18,17 C18.552285,17 19,17.447715 19,18 C19,18.552285 18.552285,19 18,19 Z" id="Fill" fill="#1E90FF" fill-rule="evenodd"></path>
                    </g>
                </g>
            </g>
        </g>
    </g>
</svg>